<mxfile host="app.diagrams.net" modified="2022-04-24T02:15:29.507Z" agent="5.0 (Windows NT 10.0; Win64; x64) AppleWebKit/537.36 (KHTML, like Gecko) Chrome/100.0.4896.127 Safari/537.36" etag="YDlmtXJjcd22d9nLMeSN" version="17.4.6" type="github">
  <diagram id="smvMTfAswRQDZr9uLSh3" name="Page-1">
    <mxGraphModel dx="1422" dy="800" grid="1" gridSize="10" guides="1" tooltips="1" connect="1" arrows="1" fold="1" page="1" pageScale="1" pageWidth="827" pageHeight="1169" math="0" shadow="0">
      <root>
        <mxCell id="0" />
        <mxCell id="1" parent="0" />
        <mxCell id="6RZilpbmAJhJYDpMnW-6-39" value="" style="whiteSpace=wrap;html=1;aspect=fixed;fillColor=#dae8fc;strokeColor=#6c8ebf;" vertex="1" parent="1">
          <mxGeometry x="20" y="130" width="560" height="560" as="geometry" />
        </mxCell>
        <mxCell id="6RZilpbmAJhJYDpMnW-6-3" value="" style="edgeStyle=orthogonalEdgeStyle;rounded=0;orthogonalLoop=1;jettySize=auto;html=1;" edge="1" parent="1" source="6RZilpbmAJhJYDpMnW-6-1" target="6RZilpbmAJhJYDpMnW-6-2">
          <mxGeometry relative="1" as="geometry" />
        </mxCell>
        <mxCell id="6RZilpbmAJhJYDpMnW-6-1" value="创建任务" style="rounded=0;whiteSpace=wrap;html=1;" vertex="1" parent="1">
          <mxGeometry x="165" width="120" height="60" as="geometry" />
        </mxCell>
        <mxCell id="6RZilpbmAJhJYDpMnW-6-5" value="" style="edgeStyle=orthogonalEdgeStyle;rounded=0;orthogonalLoop=1;jettySize=auto;html=1;" edge="1" parent="1" source="6RZilpbmAJhJYDpMnW-6-2" target="6RZilpbmAJhJYDpMnW-6-4">
          <mxGeometry relative="1" as="geometry" />
        </mxCell>
        <mxCell id="6RZilpbmAJhJYDpMnW-6-9" value="" style="edgeStyle=orthogonalEdgeStyle;rounded=0;orthogonalLoop=1;jettySize=auto;html=1;" edge="1" parent="1" source="6RZilpbmAJhJYDpMnW-6-2" target="6RZilpbmAJhJYDpMnW-6-8">
          <mxGeometry relative="1" as="geometry" />
        </mxCell>
        <mxCell id="6RZilpbmAJhJYDpMnW-6-2" value="第一次创建" style="rhombus;whiteSpace=wrap;html=1;rounded=0;" vertex="1" parent="1">
          <mxGeometry x="150" y="170" width="80" height="80" as="geometry" />
        </mxCell>
        <mxCell id="6RZilpbmAJhJYDpMnW-6-33" style="edgeStyle=orthogonalEdgeStyle;rounded=0;orthogonalLoop=1;jettySize=auto;html=1;exitX=0.75;exitY=1;exitDx=0;exitDy=0;entryX=1;entryY=0.25;entryDx=0;entryDy=0;" edge="1" parent="1" source="6RZilpbmAJhJYDpMnW-6-4" target="6RZilpbmAJhJYDpMnW-6-14">
          <mxGeometry relative="1" as="geometry" />
        </mxCell>
        <mxCell id="6RZilpbmAJhJYDpMnW-6-4" value="创建application+default_version&lt;br&gt;" style="whiteSpace=wrap;html=1;rounded=0;" vertex="1" parent="1">
          <mxGeometry x="360" y="180" width="190" height="60" as="geometry" />
        </mxCell>
        <mxCell id="6RZilpbmAJhJYDpMnW-6-11" value="" style="edgeStyle=orthogonalEdgeStyle;rounded=0;orthogonalLoop=1;jettySize=auto;html=1;" edge="1" parent="1" source="6RZilpbmAJhJYDpMnW-6-8" target="6RZilpbmAJhJYDpMnW-6-10">
          <mxGeometry relative="1" as="geometry" />
        </mxCell>
        <mxCell id="6RZilpbmAJhJYDpMnW-6-13" value="" style="edgeStyle=orthogonalEdgeStyle;rounded=0;orthogonalLoop=1;jettySize=auto;html=1;" edge="1" parent="1" source="6RZilpbmAJhJYDpMnW-6-8" target="6RZilpbmAJhJYDpMnW-6-12">
          <mxGeometry relative="1" as="geometry" />
        </mxCell>
        <mxCell id="6RZilpbmAJhJYDpMnW-6-8" value="版本是否存在" style="rhombus;whiteSpace=wrap;html=1;rounded=0;" vertex="1" parent="1">
          <mxGeometry x="90" y="320" width="80" height="80" as="geometry" />
        </mxCell>
        <mxCell id="6RZilpbmAJhJYDpMnW-6-32" style="edgeStyle=orthogonalEdgeStyle;rounded=0;orthogonalLoop=1;jettySize=auto;html=1;exitX=0.5;exitY=1;exitDx=0;exitDy=0;entryX=0.5;entryY=0;entryDx=0;entryDy=0;" edge="1" parent="1" source="6RZilpbmAJhJYDpMnW-6-10" target="6RZilpbmAJhJYDpMnW-6-14">
          <mxGeometry relative="1" as="geometry" />
        </mxCell>
        <mxCell id="6RZilpbmAJhJYDpMnW-6-10" value="创建新version" style="whiteSpace=wrap;html=1;rounded=0;" vertex="1" parent="1">
          <mxGeometry x="80" y="450" width="120" height="60" as="geometry" />
        </mxCell>
        <mxCell id="6RZilpbmAJhJYDpMnW-6-31" style="edgeStyle=orthogonalEdgeStyle;rounded=0;orthogonalLoop=1;jettySize=auto;html=1;exitX=0.5;exitY=1;exitDx=0;exitDy=0;entryX=0.5;entryY=0;entryDx=0;entryDy=0;" edge="1" parent="1" source="6RZilpbmAJhJYDpMnW-6-12" target="6RZilpbmAJhJYDpMnW-6-14">
          <mxGeometry relative="1" as="geometry" />
        </mxCell>
        <mxCell id="6RZilpbmAJhJYDpMnW-6-12" value="重新上传代码" style="whiteSpace=wrap;html=1;rounded=0;" vertex="1" parent="1">
          <mxGeometry x="354" y="420" width="120" height="60" as="geometry" />
        </mxCell>
        <mxCell id="6RZilpbmAJhJYDpMnW-6-35" style="edgeStyle=orthogonalEdgeStyle;rounded=0;orthogonalLoop=1;jettySize=auto;html=1;exitX=0.25;exitY=1;exitDx=0;exitDy=0;entryX=0.5;entryY=0;entryDx=0;entryDy=0;" edge="1" parent="1" source="6RZilpbmAJhJYDpMnW-6-14" target="6RZilpbmAJhJYDpMnW-6-34">
          <mxGeometry relative="1" as="geometry" />
        </mxCell>
        <mxCell id="6RZilpbmAJhJYDpMnW-6-14" value="创建ssc项目" style="rounded=0;whiteSpace=wrap;html=1;" vertex="1" parent="1">
          <mxGeometry x="150" y="620" width="120" height="60" as="geometry" />
        </mxCell>
        <mxCell id="6RZilpbmAJhJYDpMnW-6-18" value="" style="edgeStyle=orthogonalEdgeStyle;rounded=0;orthogonalLoop=1;jettySize=auto;html=1;" edge="1" parent="1" source="6RZilpbmAJhJYDpMnW-6-15" target="6RZilpbmAJhJYDpMnW-6-17">
          <mxGeometry relative="1" as="geometry" />
        </mxCell>
        <mxCell id="6RZilpbmAJhJYDpMnW-6-15" value="&amp;nbsp;创建application+defultVersion" style="rounded=0;whiteSpace=wrap;html=1;" vertex="1" parent="1">
          <mxGeometry x="40" y="820" width="150" height="60" as="geometry" />
        </mxCell>
        <mxCell id="6RZilpbmAJhJYDpMnW-6-37" style="edgeStyle=orthogonalEdgeStyle;rounded=0;orthogonalLoop=1;jettySize=auto;html=1;exitX=1;exitY=0.5;exitDx=0;exitDy=0;entryX=0;entryY=0.5;entryDx=0;entryDy=0;" edge="1" parent="1" source="6RZilpbmAJhJYDpMnW-6-17" target="6RZilpbmAJhJYDpMnW-6-19">
          <mxGeometry relative="1" as="geometry" />
        </mxCell>
        <mxCell id="6RZilpbmAJhJYDpMnW-6-17" value="创建version" style="whiteSpace=wrap;html=1;rounded=0;" vertex="1" parent="1">
          <mxGeometry x="55" y="970" width="120" height="60" as="geometry" />
        </mxCell>
        <mxCell id="6RZilpbmAJhJYDpMnW-6-21" value="" style="edgeStyle=orthogonalEdgeStyle;rounded=0;orthogonalLoop=1;jettySize=auto;html=1;" edge="1" parent="1" source="6RZilpbmAJhJYDpMnW-6-19" target="6RZilpbmAJhJYDpMnW-6-20">
          <mxGeometry relative="1" as="geometry" />
        </mxCell>
        <mxCell id="6RZilpbmAJhJYDpMnW-6-27" style="edgeStyle=orthogonalEdgeStyle;rounded=0;orthogonalLoop=1;jettySize=auto;html=1;exitX=1;exitY=0.5;exitDx=0;exitDy=0;entryX=0.5;entryY=0;entryDx=0;entryDy=0;" edge="1" parent="1" source="6RZilpbmAJhJYDpMnW-6-19" target="6RZilpbmAJhJYDpMnW-6-26">
          <mxGeometry relative="1" as="geometry" />
        </mxCell>
        <mxCell id="6RZilpbmAJhJYDpMnW-6-19" value="fortify_agent" style="rounded=0;whiteSpace=wrap;html=1;" vertex="1" parent="1">
          <mxGeometry x="395" y="700" width="120" height="60" as="geometry" />
        </mxCell>
        <mxCell id="6RZilpbmAJhJYDpMnW-6-20" value="git/上传代码" style="whiteSpace=wrap;html=1;rounded=0;" vertex="1" parent="1">
          <mxGeometry x="340" y="840" width="120" height="60" as="geometry" />
        </mxCell>
        <mxCell id="6RZilpbmAJhJYDpMnW-6-25" value="" style="edgeStyle=orthogonalEdgeStyle;rounded=0;orthogonalLoop=1;jettySize=auto;html=1;" edge="1" parent="1" source="6RZilpbmAJhJYDpMnW-6-22" target="6RZilpbmAJhJYDpMnW-6-24">
          <mxGeometry relative="1" as="geometry" />
        </mxCell>
        <mxCell id="6RZilpbmAJhJYDpMnW-6-22" value="传fpr" style="whiteSpace=wrap;html=1;rounded=0;" vertex="1" parent="1">
          <mxGeometry x="510" y="920" width="120" height="60" as="geometry" />
        </mxCell>
        <mxCell id="6RZilpbmAJhJYDpMnW-6-24" value="approve" style="whiteSpace=wrap;html=1;rounded=0;" vertex="1" parent="1">
          <mxGeometry x="680" y="920" width="120" height="60" as="geometry" />
        </mxCell>
        <mxCell id="6RZilpbmAJhJYDpMnW-6-28" style="edgeStyle=orthogonalEdgeStyle;rounded=0;orthogonalLoop=1;jettySize=auto;html=1;exitX=0.5;exitY=1;exitDx=0;exitDy=0;entryX=0.5;entryY=0;entryDx=0;entryDy=0;" edge="1" parent="1" source="6RZilpbmAJhJYDpMnW-6-26" target="6RZilpbmAJhJYDpMnW-6-22">
          <mxGeometry relative="1" as="geometry" />
        </mxCell>
        <mxCell id="6RZilpbmAJhJYDpMnW-6-26" value="openApi通知" style="rounded=0;whiteSpace=wrap;html=1;" vertex="1" parent="1">
          <mxGeometry x="640" y="800" width="120" height="60" as="geometry" />
        </mxCell>
        <mxCell id="6RZilpbmAJhJYDpMnW-6-36" style="edgeStyle=orthogonalEdgeStyle;rounded=0;orthogonalLoop=1;jettySize=auto;html=1;exitX=0.5;exitY=1;exitDx=0;exitDy=0;entryX=0.5;entryY=0;entryDx=0;entryDy=0;" edge="1" parent="1" source="6RZilpbmAJhJYDpMnW-6-34" target="6RZilpbmAJhJYDpMnW-6-15">
          <mxGeometry relative="1" as="geometry" />
        </mxCell>
        <mxCell id="6RZilpbmAJhJYDpMnW-6-34" value="第一次创建" style="rhombus;whiteSpace=wrap;html=1;" vertex="1" parent="1">
          <mxGeometry x="90" y="720" width="80" height="80" as="geometry" />
        </mxCell>
      </root>
    </mxGraphModel>
  </diagram>
</mxfile>
